<svg version="1.0" xmlns="http://www.w3.org/2000/svg"
 width="300.000000pt" height="231.000000pt" viewBox="0 0 300.000000 231.000000"
 preserveAspectRatio="xMidYMid meet">
<g transform="translate(0.000000,231.000000) scale(0.100000,-0.100000)"
fill="black">
<path style="fill:#0ff" d="M1080 2154 c-116 -28 -237 -102 -328 -202 -177 -192 -259 -445 -259
-793 0 -260 35 -448 114 -614 100 -210 243 -334 444 -386 92 -23 247 -25 355
-5 215 41 398 180 503 379 l37 71 14 -68 c20 -99 78 -268 107 -315 34 -53 89
-81 158 -81 107 1 192 71 247 204 32 76 61 217 61 292 0 43 -1 44 -34 44 -37
0 -46 -15 -46 -76 0 -17 -12 -55 -27 -85 -34 -65 -85 -99 -153 -99 -85 0 -146
61 -198 199 -58 150 -58 162 -18 323 19 79 84 364 145 633 60 270 112 502 116
518 l7 27 -179 0 -180 0 -58 -272 c-31 -150 -61 -286 -65 -303 -6 -28 -8 -26
-29 40 -73 238 -206 450 -327 521 -106 62 -270 81 -407 48z m268 -29 c33 -9
79 -25 101 -37 52 -26 133 -104 179 -173 40 -61 105 -196 131 -275 20 -58 59
-130 72 -130 13 0 29 14 39 35 11 21 33 113 85 365 16 80 35 151 40 158 8 9
45 12 142 10 l131 -3 -1 -30 c0 -16 -20 -113 -42 -215 -23 -102 -60 -264 -81
-360 -58 -261 -118 -517 -136 -585 -20 -72 -15 -131 18 -230 65 -192 135 -265
253 -265 73 0 111 22 164 93 29 39 36 44 38 27 4 -27 -24 -123 -54 -182 -92
-182 -266 -211 -345 -58 -26 50 -57 142 -89 262 -14 52 -39 82 -63 72 -8 -3
-39 -42 -68 -87 -124 -192 -288 -302 -499 -336 -352 -57 -634 113 -759 456
-90 244 -105 627 -36 898 103 409 455 674 780 590z"/>
<path style="fill:#0ff" d="M1180 2039 c-166 -40 -269 -196 -323 -494 -22 -121 -31 -599 -14
-740 47 -392 181 -583 402 -574 79 3 145 35 214 105 126 127 205 328 290 736
l45 218 -16 57 c-75 264 -210 527 -312 613 -83 68 -199 100 -286 79z m166 -45
c132 -45 257 -235 371 -562 l46 -133 -45 -213 c-25 -117 -56 -253 -70 -301
-76 -262 -173 -422 -297 -490 -44 -25 -64 -30 -123 -30 -184 0 -291 150 -347
490 -9 53 -13 176 -13 370 0 253 3 305 22 410 46 254 118 391 235 449 62 31
149 35 221 10z"/>
</g>
</svg>
